<svg id="Layer_1" data-name="Layer 1" xmlns="http://www.w3.org/2000/svg" viewBox="0 0 578.31 164.16">
  <defs>
    <style>
      .cls-1 {
        fill: #f7240d;
      }
    </style>
  </defs>
  <title>logo</title>
  <path class="cls-1" d="M446,317.13V475.24H404.94V408.83h-12.3v66.41H351.52V317.13h41.11v56.54h12.3V317.13H446Z" transform="translate(-175.35 -314.04)"/>
  <path class="cls-1" d="M571.83,317.13h30.76q29.78,0,40.28,2.73t16,9a28.46,28.46,0,0,1,6.84,13.92Q667,350.44,667,372.9v55.37q0,21.29-2,28.47a21.41,21.41,0,0,1-7,11.23,29,29,0,0,1-12.3,5.66q-7.32,1.61-22.07,1.61H571.83V317.13Zm41.11,27.05v104q8.89,0,10.94-3.56t2.05-19.38V363.81q0-10.74-.68-13.77a6.54,6.54,0,0,0-3.12-4.44Q619.68,344.19,612.94,344.19Z" transform="translate(-175.35 -314.04)"/>
  <path class="cls-1" d="M682.38,317.13h68.55v31.64H723.49v30h25.68v30.08H723.49V443.6h30.18v31.64H682.38V317.13Z" transform="translate(-175.35 -314.04)"/>
  <g>
    <path class="cls-1" d="M175.35,474.13V415.82h30.49v23.34h28.89V417.31h29v21.85h33.5V413.49h30.49v60.64H175.35Z" transform="translate(-175.35 -314.04)"/>
    <path class="cls-1" d="M175.35,316.8h30.49v23.52H327.69v39.61H205.84v23.43H175.35V316.8Z" transform="translate(-175.35 -314.04)"/>
  </g>
  <g>
    <path class="cls-1" d="M554.07,344.42a36.57,36.57,0,0,0-6.88-14.75q-5.08-6.54-15.34-11.08A56.76,56.76,0,0,0,508.61,314q-15.92,0-27.1,6.55T466.57,338q-3.76,10.84-3.76,32.62v55.17q0,16.71,2.35,24.37a43.47,43.47,0,0,0,7.91,14.6A32.26,32.26,0,0,0,488,474.93q9.38,3.27,23.53,3.27A57.28,57.28,0,0,0,531,475.08a34.93,34.93,0,0,0,14.84-10.25,36.22,36.22,0,0,0,8.1-15.34q2-8.21,2-26.17V370.59Q555.88,352.62,554.07,344.42Zm-7.29,73.29q0,14.27-1.56,20.77a28.79,28.79,0,0,1-6.42,12.18A27.78,27.78,0,0,1,527,458.79a45.53,45.53,0,0,1-15.43,2.48q-11.25,0-18.68-2.6a25.68,25.68,0,0,1-11.86-8.09A34.47,34.47,0,0,1,474.78,439q-1.87-6.09-1.87-19.34V375.86q0-17.3,3-25.89t11.86-13.8q8.88-5.19,21.51-5.2a45.13,45.13,0,0,1,18.45,3.61q8.14,3.6,12.17,8.8a28.86,28.86,0,0,1,5.46,11.71q1.44,6.5,1.44,20.77v41.85Z" transform="translate(-175.35 -314.04)"/>
    <circle class="cls-1" cx="314.08" cy="43.59" r="5.5"/>
    <circle class="cls-1" cx="354.14" cy="43.59" r="5.5"/>
    <path class="cls-1" d="M508.29,393.42L499.88,408a1.81,1.81,0,0,0,1.56,2.71h16.81a1.81,1.81,0,0,0,1.56-2.71l-8.4-14.55a1.81,1.81,0,0,0-3.13,0L499.88,408a1.81,1.81,0,0,0,1.56,2.71h16.81a1.81,1.81,0,0,0,1.56-2.71l-8.4-14.55A1.81,1.81,0,0,0,508.29,393.42Z" transform="translate(-175.35 -314.04)"/>
    <path class="cls-1" d="M534.13,437.47l-6.9,3.18a1.48,1.48,0,0,1-.62.14H491.69a1.48,1.48,0,0,1-.61-0.13l-6.27-2.82a1.48,1.48,0,0,1-.88-1.35v-2.75a1.48,1.48,0,0,1,2.15-1.33l5.1,2.57a1.48,1.48,0,0,0,.67.16H526.6a1.48,1.48,0,0,0,.63-0.14l5.64-2.67a1.48,1.48,0,0,1,2.12,1.34v2.46A1.48,1.48,0,0,1,534.13,437.47Z" transform="translate(-175.35 -314.04)"/>
  </g>
</svg>
